<svg id="Capa_1" enable-background="new 0 0 512 512" height="512" viewBox="0 0 512 512" width="512" xmlns="http://www.w3.org/2000/svg"><g><g><path d="m25.221 226.83v-149.595c0-38.514 31.213-69.735 69.717-69.735h322.124c38.503 0 69.717 31.221 69.717 69.735v357.531c0 38.513-31.213 69.735-69.717 69.735h-322.124c-38.503 0-69.717-31.221-69.717-69.735v-168.295" fill="#ffc1c7"/></g><g><path d="m417.062 7.5h-30c38.503 0 69.717 31.221 69.717 69.735v357.531c0 38.513-31.213 69.735-69.717 69.735h30c38.503 0 69.717-31.221 69.717-69.735v-357.531c0-38.514-31.213-69.735-69.717-69.735z" fill="#ffb3ba"/></g><g><path d="m25.359 438.97c2.175 36.554 32.488 65.53 69.579 65.53h322.124c37.091 0 67.404-28.976 69.579-65.53z" fill="#fff"/></g><g><path d="m456.641 438.97c-2.175 36.554-32.488 65.53-69.579 65.53h30c37.091 0 67.404-28.976 69.579-65.53z" fill="#eef0f0"/></g><g><ellipse cx="316.246" cy="279.446" fill="#7191f0" rx="117.274" ry="117.539"/></g><g><ellipse cx="316.246" cy="279.446" fill="#4365cc" rx="54.56" ry="54.684"/></g><g><path d="m316.246 161.907c-6.384 0-12.646.519-18.753 1.503 55.853 8.998 98.521 57.52 98.521 116.037s-42.668 107.039-98.521 116.037c6.107.984 12.369 1.503 18.753 1.503 64.769 0 117.274-52.624 117.274-117.539s-52.505-117.541-117.274-117.541z" fill="#6084f0"/></g><g><ellipse cx="117.552" cy="344.383" fill="#b1abb4" rx="23.411" ry="23.464"/></g><g><path d="m99.434 116.507v-40.726c0-2.278 1.847-4.125 4.125-4.125h71.53c2.278 0 4.125 1.847 4.125 4.125v40.726c0 2.278-1.847 4.125-4.125 4.125h-71.53c-2.279 0-4.125-1.847-4.125-4.125z" fill="#fdfcfc"/></g><g><path d="m173.695 71.657h-40.136c3.048 0 5.518 2.471 5.518 5.52v37.936c0 3.048-2.471 5.52-5.518 5.52h40.136c3.048 0 5.518-2.471 5.518-5.52v-37.937c0-3.048-2.471-5.519-5.518-5.519z" fill="#eef0f0"/></g><g><path d="m254.186 279.446c0 34.288 27.84 62.184 62.06 62.184s62.061-27.895 62.061-62.184c0-34.288-27.84-62.184-62.061-62.184s-62.06 27.896-62.06 62.184zm109.12 0c0 26.017-21.111 47.184-47.061 47.184-25.949 0-47.06-21.167-47.06-47.184s21.111-47.184 47.06-47.184c25.95 0 47.061 21.167 47.061 47.184z"/><path d="m417.062 0h-322.124c-42.578 0-77.217 34.647-77.217 77.235v149.595c0 4.142 3.358 7.5 7.5 7.5s7.5-3.358 7.5-7.5v-149.595c0-34.317 27.91-62.235 62.217-62.235h322.124c34.307 0 62.217 27.918 62.217 62.235v354.235h-107.416c-4.142 0-7.5 3.358-7.5 7.5s3.358 7.5 7.5 7.5h106.297c-5.492 28.738-30.792 50.53-61.098 50.53h-322.124c-30.306 0-55.606-21.792-61.098-50.53h308.023c4.142 0 7.5-3.358 7.5-7.5s-3.358-7.5-7.5-7.5h-309.142v-164.999c0-4.142-3.358-7.5-7.5-7.5s-7.5 3.358-7.5 7.5v168.294c0 42.588 34.639 77.235 77.217 77.235h322.124c42.578 0 77.217-34.647 77.217-77.235v-357.53c0-42.588-34.639-77.235-77.217-77.235z"/><path d="m191.471 279.446c0 68.947 55.974 125.039 124.774 125.039s124.775-56.092 124.775-125.039-55.974-125.04-124.774-125.04-124.775 56.093-124.775 125.04zm234.549 0c0 60.676-49.245 110.039-109.774 110.039s-109.774-49.363-109.774-110.039 49.245-110.04 109.774-110.04 109.774 49.364 109.774 110.04z"/><path d="m117.552 375.347c17.044 0 30.911-13.89 30.911-30.964s-13.867-30.964-30.911-30.964c-17.045 0-30.911 13.89-30.911 30.964 0 17.073 13.866 30.964 30.911 30.964zm0-46.929c8.773 0 15.911 7.161 15.911 15.964s-7.138 15.964-15.911 15.964-15.911-7.161-15.911-15.964c0-8.802 7.137-15.964 15.911-15.964z"/><path d="m175.088 128.132c6.41 0 11.624-5.215 11.624-11.625v-40.726c0-6.41-5.215-11.625-11.624-11.625h-71.53c-6.41 0-11.624 5.215-11.624 11.625v40.726c0 6.41 5.215 11.625 11.625 11.625zm-68.154-48.976h64.779v33.975h-64.779z"/><path d="m356.273 84.53h34.315c4.142 0 7.5-3.358 7.5-7.5s-3.358-7.5-7.5-7.5h-34.315c-4.142 0-7.5 3.358-7.5 7.5s3.358 7.5 7.5 7.5z"/><path d="m356.273 119.724h34.315c4.142 0 7.5-3.358 7.5-7.5s-3.358-7.5-7.5-7.5h-34.315c-4.142 0-7.5 3.358-7.5 7.5s3.358 7.5 7.5 7.5z"/></g></g></svg>