<svg id="Layer_1" enable-background="new 0 0 256 256" height="512" viewBox="0 0 256 256" width="512" xmlns="http://www.w3.org/2000/svg"><path d="m209.65 245.875h-163.3c-2.541 0-4.6-2.059-4.6-4.6v-226.55c0-2.541 2.059-4.6 4.6-4.6h163.3c2.541 0 4.6 2.059 4.6 4.6v226.55c0 2.541-2.059 4.6-4.6 4.6z" fill="#f9cfcf"/><path d="m201.6 238.025h-147.2c-2.646 0-4.8-2.153-4.8-4.801v-210.449c0-2.647 2.153-4.801 4.8-4.801h147.2c2.646 0 4.8 2.153 4.8 4.801v210.449c0 2.648-2.153 4.801-4.8 4.801zm-147-5h146.8v-210.05h-146.8z" fill="#e0ebfc"/><circle cx="138.231" cy="82.728" fill="#a4c9ff" r="21.877"/><circle cx="99.098" cy="87.148" fill="#a4c9ff" r="17.458"/><path d="m92.494 81.541c-.264 0-.528-.101-.729-.302l-3.489-3.489c-.403-.403-.403-1.055 0-1.457.402-.402 1.055-.402 1.457 0l3.489 3.489c.403.403.403 1.055 0 1.457-.2.201-.464.302-.728.302z" fill="#e0ebfc"/><path d="m105.702 81.541c-.264 0-.528-.101-.729-.302-.403-.403-.403-1.055 0-1.457l3.489-3.489c.402-.402 1.055-.402 1.457 0 .403.403.403 1.055 0 1.457l-3.489 3.489c-.2.201-.464.302-.728.302z" fill="#e0ebfc"/><path d="m129.955 75.706c-.33 0-.659-.126-.911-.377l-4.372-4.372c-.503-.503-.503-1.319 0-1.822s1.319-.503 1.821 0l4.372 4.372c.503.503.503 1.319 0 1.822-.25.252-.58.377-.91.377z" fill="#e0ebfc"/><path d="m146.507 75.706c-.33 0-.659-.126-.911-.377-.503-.503-.503-1.319 0-1.822l4.372-4.372c.503-.503 1.319-.503 1.821 0 .503.503.503 1.319 0 1.822l-4.372 4.372c-.251.252-.581.377-.91.377z" fill="#e0ebfc"/><path d="m160.179 167.603h-78.609c-2.53 0-4.582-2.051-4.582-4.582v-53.835c0-2.53 2.051-4.582 4.582-4.582h78.61c2.53 0 4.582 2.051 4.582 4.582v53.835c-.001 2.531-2.052 4.582-4.583 4.582z" fill="#4671c6"/><circle cx="138.231" cy="82.728" fill="#f9cfcf" r="7.669"/><path d="m164.761 122.942v12.132 12.132l22.473 10.876c1.214.587 2.594-.352 2.594-1.766v-21.242-21.242c0-1.413-1.381-2.353-2.594-1.766z" fill="#f9a7a7"/><path d="m76.988 159.154h-6.235c-2.53 0-4.582-2.051-4.582-4.582v-36.935c0-2.53 2.051-4.582 4.582-4.582h6.235z" fill="#f9a7a7"/><path d="m138.231 106.605c-13.166 0-23.877-10.711-23.877-23.877s10.711-23.878 23.877-23.878 23.877 10.712 23.877 23.878-10.711 23.877-23.877 23.877zm0-43.754c-10.96 0-19.877 8.917-19.877 19.878 0 10.96 8.917 19.877 19.877 19.877s19.877-8.917 19.877-19.877c0-10.961-8.917-19.878-19.877-19.878z" fill="#3762cc"/><path d="m160.179 169.604h-78.609c-3.629 0-6.582-2.953-6.582-6.582v-53.834c0-3.629 2.953-6.582 6.582-6.582h78.609c3.629 0 6.582 2.953 6.582 6.582v53.834c0 3.628-2.953 6.582-6.582 6.582zm-78.609-62.999c-1.424 0-2.582 1.158-2.582 2.582v53.834c0 1.424 1.158 2.582 2.582 2.582h78.609c1.423 0 2.582-1.158 2.582-2.582v-53.834c0-1.424-1.158-2.582-2.582-2.582z" fill="#3762cc"/><path d="m187.998 160.259c-.557 0-1.115-.125-1.636-.378l-22.473-10.876c-.69-.334-1.129-1.033-1.129-1.8v-24.263c0-.767.438-1.466 1.129-1.8l22.474-10.877c1.169-.566 2.525-.491 3.628.2 1.15.722 1.837 1.979 1.837 3.365v42.485c0 1.386-.687 2.645-1.838 3.365-.611.384-1.3.579-1.992.579zm-21.237-14.308 21.125 10.224-.058-21.102v-21.073l-21.068 10.196v21.755z" fill="#3762cc"/><path d="m76.988 161.153h-6.235c-3.629 0-6.582-2.952-6.582-6.581v-36.935c0-3.629 2.953-6.582 6.582-6.582h6.235c1.104 0 2 .896 2 2v46.098c0 1.105-.896 2-2 2zm-6.235-46.097c-1.423 0-2.582 1.158-2.582 2.582v36.935c0 1.423 1.158 2.581 2.582 2.581h4.235v-42.098z" fill="#3762cc"/><path d="m138.231 92.396c-5.331 0-9.668-4.337-9.668-9.668s4.337-9.669 9.668-9.669c5.332 0 9.669 4.338 9.669 9.669s-4.337 9.668-9.669 9.668zm0-15.336c-3.125 0-5.668 2.543-5.668 5.669 0 3.125 2.543 5.668 5.668 5.668 3.126 0 5.669-2.543 5.669-5.668 0-3.126-2.543-5.669-5.669-5.669z" fill="#3762cc"/><path d="m150.879 96.664c-.33 0-.659-.126-.911-.377l-4.372-4.372c-.503-.503-.503-1.319 0-1.822s1.319-.503 1.821 0l4.372 4.372c.503.503.503 1.319 0 1.822-.251.251-.581.377-.91.377z" fill="#e0ebfc"/><circle cx="99.098" cy="87.148" fill="#f9cfcf" r="6.119"/><path d="m99.098 106.605c-10.729 0-19.458-8.729-19.458-19.457 0-10.729 8.729-19.458 19.458-19.458s19.458 8.729 19.458 19.458-8.729 19.457-19.458 19.457zm0-34.915c-8.523 0-15.458 6.935-15.458 15.458s6.934 15.457 15.458 15.457 15.458-6.934 15.458-15.457-6.934-15.458-15.458-15.458z" fill="#3762cc"/><path d="m99.098 95.268c-4.477 0-8.119-3.643-8.119-8.119 0-4.478 3.642-8.12 8.119-8.12s8.12 3.643 8.12 8.12c0 4.476-3.643 8.119-8.12 8.119zm0-12.24c-2.271 0-4.119 1.849-4.119 4.12s1.848 4.119 4.119 4.119 4.12-1.848 4.12-4.119-1.848-4.12-4.12-4.12z" fill="#3762cc"/><path d="m109.191 98.271c-.264 0-.528-.101-.729-.302l-3.489-3.489c-.403-.403-.403-1.055 0-1.457.402-.402 1.055-.402 1.457 0l3.489 3.489c.403.403.403 1.055 0 1.457-.201.201-.465.302-.728.302z" fill="#e0ebfc"/><path d="m89.006 98.271c-.264 0-.528-.101-.729-.302-.403-.403-.403-1.055 0-1.457l3.489-3.489c.402-.402 1.055-.402 1.457 0 .403.403.403 1.055 0 1.457l-3.489 3.489c-.201.201-.465.302-.728.302z" fill="#e0ebfc"/><path d="m149.028 152.648h-57.192c-1.992 0-3.607-1.615-3.607-3.607v-24.989c0-1.992 1.615-3.607 3.607-3.607h57.191c1.992 0 3.607 1.615 3.607 3.607v24.989c0 1.992-1.614 3.607-3.606 3.607z" fill="#6bdddd"/><path d="m136.143 139.94h-32.01c-1.967 0-3.562-1.595-3.562-3.562 0-1.967 1.595-3.562 3.562-3.562h32.01c1.967 0 3.562 1.595 3.562 3.562-.001 1.968-1.595 3.562-3.562 3.562z" fill="#ffea92"/><path d="m149.028 154.648h-57.192c-3.092 0-5.607-2.515-5.607-5.606v-24.989c0-3.092 2.515-5.606 5.607-5.606h57.191c3.091 0 5.606 2.515 5.606 5.606v24.989c.001 3.092-2.514 5.606-5.605 5.606zm-57.192-32.202c-.886 0-1.607.721-1.607 1.606v24.989c0 .886.721 1.606 1.607 1.606h57.191c.886 0 1.606-.721 1.606-1.606v-24.989c0-.886-.721-1.606-1.606-1.606z" fill="#3762cc"/><path d="m136.143 141.94h-32.01c-3.067 0-5.562-2.495-5.562-5.562s2.495-5.563 5.562-5.563h32.01c3.066 0 5.562 2.495 5.562 5.563 0 3.067-2.496 5.562-5.562 5.562zm-32.01-7.124c-.861 0-1.562.701-1.562 1.563s.701 1.562 1.562 1.562h32.01c.861 0 1.562-.7 1.562-1.562s-.701-1.563-1.562-1.563z" fill="#3762cc"/><path d="m90.227 162.387h-5.03c-.926 0-1.677-.751-1.677-1.677v-4.192c0-.926.751-1.677 1.677-1.677h5.03c.926 0 1.677.751 1.677 1.677v4.192c-.001.926-.751 1.677-1.677 1.677z" fill="#6bdddd"/><path d="m90.227 164.387h-5.03c-2.027 0-3.677-1.649-3.677-3.677v-4.191c0-2.027 1.649-3.677 3.677-3.677h5.03c2.027 0 3.677 1.649 3.677 3.677v4.191c-.001 2.027-1.65 3.677-3.677 3.677zm-4.707-4h4.384v-3.545h-4.384z" fill="#3762cc"/><path d="m125.583 96.664c-.33 0-.659-.126-.911-.377-.503-.503-.503-1.319 0-1.822l4.372-4.372c.503-.503 1.319-.503 1.821 0 .503.503.503 1.319 0 1.822l-4.372 4.372c-.25.251-.58.377-.91.377z" fill="#e0ebfc"/><path d="m179.463 204.913h-102.926c-4.922 0-8.912-3.99-8.912-8.912 0-4.922 3.99-8.912 8.912-8.912h102.925c4.922 0 8.912 3.99 8.912 8.912.001 4.921-3.989 8.912-8.911 8.912z" fill="#a4c9ff"/><path d="m82.068 41.367h-18.536c-2.435 0-4.408-1.974-4.408-4.408 0-2.435 1.974-4.408 4.408-4.408h18.537c2.435 0 4.408 1.974 4.408 4.408 0 2.434-1.974 4.408-4.409 4.408z" fill="#f9a7a7"/><path d="m118.868 41.367h-18.537c-2.435 0-4.408-1.974-4.408-4.408 0-2.435 1.974-4.408 4.408-4.408h18.537c2.435 0 4.408 1.974 4.408 4.408.001 2.434-1.973 4.408-4.408 4.408z" fill="#f9a7a7"/><path d="m155.668 41.367h-18.537c-2.435 0-4.408-1.974-4.408-4.408 0-2.435 1.974-4.408 4.408-4.408h18.537c2.435 0 4.408 1.974 4.408 4.408.001 2.434-1.973 4.408-4.408 4.408z" fill="#f9a7a7"/><path d="m192.468 41.367h-18.537c-2.435 0-4.408-1.974-4.408-4.408 0-2.435 1.974-4.408 4.408-4.408h18.537c2.435 0 4.408 1.974 4.408 4.408.001 2.434-1.973 4.408-4.408 4.408z" fill="#f9a7a7"/><path d="m174.153 223.072h-92.306c-2.209 0-4-1.791-4-4 0-2.209 1.791-4 4-4h92.307c2.209 0 4 1.791 4 4-.001 2.21-1.792 4-4.001 4z" fill="#f9a7a7"/><circle cx="52.1" cy="20.475" fill="#6bdddd" r="5.153"/><circle cx="203.9" cy="20.475" fill="#6bdddd" r="5.153"/><circle cx="52.1" cy="235.525" fill="#6bdddd" r="5.153"/><circle cx="203.9" cy="235.525" fill="#6bdddd" r="5.153"/><g fill="#3762cc"><path d="m209.65 247.875h-163.3c-3.639 0-6.6-2.961-6.6-6.6v-226.55c0-3.639 2.961-6.6 6.6-6.6h163.3c3.639 0 6.6 2.961 6.6 6.6v226.551c0 3.638-2.961 6.599-6.6 6.599zm-163.3-235.75c-1.434 0-2.6 1.166-2.6 2.6v226.551c0 1.434 1.167 2.6 2.6 2.6h163.3c1.434 0 2.6-1.166 2.6-2.6v-226.551c0-1.434-1.167-2.6-2.6-2.6z"/><path d="m52.1 27.628c-3.944 0-7.153-3.209-7.153-7.153 0-3.943 3.209-7.152 7.153-7.152s7.153 3.209 7.153 7.152c0 3.944-3.209 7.153-7.153 7.153zm0-10.306c-1.738 0-3.153 1.414-3.153 3.152s1.415 3.153 3.153 3.153 3.153-1.415 3.153-3.153-1.415-3.152-3.153-3.152z"/><path d="m203.9 27.628c-3.944 0-7.153-3.209-7.153-7.153 0-3.943 3.209-7.152 7.153-7.152s7.153 3.209 7.153 7.152c0 3.944-3.209 7.153-7.153 7.153zm0-10.306c-1.738 0-3.153 1.414-3.153 3.152s1.415 3.153 3.153 3.153 3.153-1.415 3.153-3.153-1.415-3.152-3.153-3.152z"/><path d="m52.1 242.678c-3.944 0-7.153-3.209-7.153-7.152 0-3.944 3.209-7.153 7.153-7.153s7.153 3.209 7.153 7.153c0 3.943-3.209 7.152-7.153 7.152zm0-10.306c-1.738 0-3.153 1.415-3.153 3.153s1.415 3.152 3.153 3.152 3.153-1.414 3.153-3.152-1.415-3.153-3.153-3.153z"/><path d="m203.9 242.678c-3.944 0-7.153-3.209-7.153-7.152 0-3.944 3.209-7.153 7.153-7.153s7.153 3.209 7.153 7.153c0 3.943-3.209 7.152-7.153 7.152zm0-10.306c-1.738 0-3.153 1.415-3.153 3.153s1.415 3.152 3.153 3.152 3.153-1.414 3.153-3.152-1.415-3.153-3.153-3.153z"/><path d="m179.462 206.912h-102.924c-6.017 0-10.913-4.896-10.913-10.912s4.896-10.912 10.913-10.912h102.925c6.017 0 10.913 4.896 10.913 10.912s-4.897 10.912-10.914 10.912zm-102.924-17.824c-3.812 0-6.913 3.101-6.913 6.912s3.101 6.912 6.913 6.912h102.925c3.812 0 6.913-3.101 6.913-6.912s-3.101-6.912-6.913-6.912z"/><path d="m82.068 43.366h-18.536c-3.534 0-6.408-2.875-6.408-6.408s2.875-6.408 6.408-6.408h18.537c3.534 0 6.408 2.875 6.408 6.408s-2.875 6.408-6.409 6.408zm-18.536-8.816c-1.328 0-2.408 1.08-2.408 2.408s1.08 2.408 2.408 2.408h18.537c1.328 0 2.408-1.08 2.408-2.408s-1.08-2.408-2.408-2.408z"/><path d="m118.868 43.366h-18.537c-3.534 0-6.408-2.875-6.408-6.408s2.875-6.408 6.408-6.408h18.537c3.534 0 6.409 2.875 6.409 6.408s-2.875 6.408-6.409 6.408zm-18.536-8.816c-1.328 0-2.408 1.08-2.408 2.408s1.08 2.408 2.408 2.408h18.537c1.328 0 2.409-1.08 2.409-2.408s-1.081-2.408-2.409-2.408z"/><path d="m155.668 43.366h-18.537c-3.534 0-6.409-2.875-6.409-6.408s2.875-6.408 6.409-6.408h18.537c3.534 0 6.408 2.875 6.408 6.408s-2.874 6.408-6.408 6.408zm-18.536-8.816c-1.328 0-2.409 1.08-2.409 2.408s1.081 2.408 2.409 2.408h18.537c1.328 0 2.408-1.08 2.408-2.408s-1.08-2.408-2.408-2.408z"/><path d="m192.468 43.366h-18.537c-3.534 0-6.408-2.875-6.408-6.408s2.875-6.408 6.408-6.408h18.537c3.534 0 6.408 2.875 6.408 6.408s-2.874 6.408-6.408 6.408zm-18.536-8.816c-1.328 0-2.408 1.08-2.408 2.408s1.08 2.408 2.408 2.408h18.537c1.328 0 2.408-1.08 2.408-2.408s-1.08-2.408-2.408-2.408z"/><path d="m174.153 225.072h-92.306c-3.309 0-6-2.691-6-6s2.691-6 6-6h92.307c3.309 0 6 2.691 6 6s-2.692 6-6.001 6zm-92.306-8c-1.103 0-2 .897-2 2s.897 2 2 2h92.307c1.103 0 2-.897 2-2s-.897-2-2-2z"/></g></svg>